HIERARCHY
ROOT Hips
{
    OFFSET 0.000000 0.000000 0.000000
    CHANNELS 6 Xposition Yposition Zposition Zrotation Xrotation Yrotation
    JOINT Spine
    {
        OFFSET -0.000000 8.603107 0.000000
        CHANNELS 3 Zrotation Xrotation Yrotation
        JOINT Spine1
        {
            OFFSET -0.000000 23.906662 0.000000
            CHANNELS 3 Zrotation Xrotation Yrotation
            JOINT Neck
            {
                OFFSET -0.000000 23.808481 2.164407
                CHANNELS 3 Zrotation Xrotation Yrotation
                JOINT Head
                {
                    OFFSET -0.000000 14.688231 -2.098319
                    CHANNELS 3 Zrotation Xrotation Yrotation
                    End Site
                    {
                        OFFSET -0.000000 26.228985 0.000000
                    }
                }
            }
            JOINT LeftShoulder
            {
                OFFSET 4.178941 22.658146 -0.129871
                CHANNELS 3 Zrotation Xrotation Yrotation
                JOINT LeftArm
                {
                    OFFSET 9.497952 0.000000 0.000000
                    CHANNELS 3 Zrotation Xrotation Yrotation
                    JOINT LeftForeArm
                    {
                        OFFSET 38.855015 0.000000 0.000000
                        CHANNELS 3 Zrotation Xrotation Yrotation
                        JOINT LeftHand
                        {
                            OFFSET 24.940550 0.000000 0.000000
                            CHANNELS 3 Zrotation Xrotation Yrotation
                            End Site
                            {
                                OFFSET 15.737392 0.000000 0.000000
                            }
                        }
                    }
                }
            }
            JOINT RightShoulder
            {
                OFFSET -4.145384 22.658146 -0.129871
                CHANNELS 3 Zrotation Xrotation Yrotation
                JOINT RightArm
                {
                    OFFSET -9.497952 0.000000 0.000000
                    CHANNELS 3 Zrotation Xrotation Yrotation
                    JOINT RightForeArm
                    {
                        OFFSET -38.855015 0.000000 0.000000
                        CHANNELS 3 Zrotation Xrotation Yrotation
                        JOINT RightHand
                        {
                            OFFSET -24.940550 0.000000 0.000000
                            CHANNELS 3 Zrotation Xrotation Yrotation
                            End Site
                            {
                                OFFSET -15.737392 0.000000 0.000000
                            }
                        }
                    }
                }
            }
        }
    }
    JOINT LeftUpLeg
    {
        OFFSET 10.491594 0.000000 0.000000
        CHANNELS 3 Zrotation Xrotation Yrotation
        JOINT LeftLeg
        {
            OFFSET -0.000000 -46.080647 0.000000
            CHANNELS 3 Zrotation Xrotation Yrotation
            JOINT LeftFoot
            {
                OFFSET -0.000000 -50.184704 0.000000
                CHANNELS 3 Zrotation Xrotation Yrotation
                JOINT LeftToeBase
                {
                    OFFSET -0.000000 -6.819536 15.737392
                    CHANNELS 3 Zrotation Xrotation Yrotation
                    End Site
                    {
                        OFFSET -0.000000 0.000000 4.196638
                    }
                }
            }
        }
    }
    JOINT RightUpLeg
    {
        OFFSET -10.491594 0.000000 0.000000
        CHANNELS 3 Zrotation Xrotation Yrotation
        JOINT RightLeg
        {
            OFFSET -0.000000 -46.080647 0.000000
            CHANNELS 3 Zrotation Xrotation Yrotation
            JOINT RightFoot
            {
                OFFSET -0.000000 -50.184704 0.000000
                CHANNELS 3 Zrotation Xrotation Yrotation
                JOINT RightToeBase
                {
                    OFFSET -0.000000 -6.819536 15.737392
                    CHANNELS 3 Zrotation Xrotation Yrotation
                    End Site
                    {
                        OFFSET -0.000000 0.000000 4.196638
                    }
                }
            }
        }
    }
}
MOTION
Frames:    9
Frame Time:    0.008333
-145.321747    103.607811    41.421967    -0.486892    -1.516121    92.183327    0.389105    -6.453796    1.143469    1.246799    1.293751    1.107482    5.263137    17.072897    3.371345    -0.141594    -0.844807    3.528097    11.566954    -0.021094    -11.802980    -18.462358    -0.474657    10.911713    1.519235    -5.001709    0.606506    0.789293    -4.996169    1.976966    -12.410619    1.927415    -8.491220    16.858759    -5.106069    1.077521    -0.720638    -4.670163    0.009676    2.046155    -4.698376    -1.588818    -0.200846    -0.866342    -1.028737    -2.552494    12.427528    -7.961854    6.809513    -9.243851    12.223730    0.000000    0.000000    0.000000    3.445269    4.574044    -0.885057    1.782597    0.067510    -0.469750    -4.272942    -2.162064    -9.414927    0.000000    0.000000    0.000000    
-145.294876    103.606049    41.434357    -0.510146    -1.513766    92.185188    0.384219    -6.465379    1.127368    1.268242    1.283802    1.091461    5.225176    17.056440    3.311391    -0.139932    -0.801132    3.464911    11.541722    -0.036926    -11.781628    -18.402456    -0.457052    10.919711    1.567927    -5.021181    0.615053    0.212879    -5.025591    2.147687    -12.434850    1.918341    -8.480030    16.825277    -5.069771    1.068141    -0.795223    -4.624336    -0.001124    2.345527    -4.654775    -1.490373    -0.178896    -0.844320    -1.073582    -2.596567    12.372055    -7.936753    6.841660    -9.233861    12.247885    0.000000    0.000000    0.000000    3.450125    4.572262    -0.873733    1.786043    0.051128    -0.528538    -4.293037    -2.168785    -9.381124    0.000000    0.000000    0.000000    
-145.281769    103.609299    41.436939    -0.523647    -1.505315    92.183777    0.391856    -6.454488    1.120127    1.250028    1.239566    1.084564    5.218015    17.070042    3.287393    -0.128938    -0.773649    3.442229    11.530469    -0.018762    -11.781233    -18.372368    -0.442718    10.936666    1.597546    -5.003472    0.626510    0.123008    -5.009869    2.164812    -12.433789    1.918572    -8.466928    16.812719    -5.014119    1.062764    -0.770366    -4.692933    0.026978    2.091557    -4.721408    -1.573996    -0.189333    -0.845115    -1.084383    -2.593398    12.357275    -7.902661    6.825706    -9.220531    12.223921    0.000000    0.000000    0.000000    3.442696    4.565767    -0.884331    1.789895    0.047503    -0.531961    -4.291710    -2.159124    -9.375603    0.000000    0.000000    0.000000    
-145.269424    103.608253    41.443436    -0.531413    -1.503654    92.174553    0.388315    -6.455569    1.126063    1.253358    1.242101    1.090634    5.185913    16.933716    3.254920    -0.039142    -0.551195    3.414962    11.558871    -0.018370    -11.787875    -18.378901    -0.464057    10.934562    1.625656    -4.975436    0.646377    0.037702    -4.983868    2.184821    -12.438107    1.910148    -8.493461    16.800800    -4.989343    1.074754    -0.789873    -4.663902    0.034098    2.113746    -4.692783    -1.583022    -0.185446    -0.841870    -1.067000    -2.590774    12.354500    -7.961457    6.811662    -9.219953    12.265938    0.000000    0.000000    0.000000    3.453511    4.575616    -0.894189    1.773996    0.022118    -0.526322    -4.286654    -2.142259    -9.359725    0.000000    0.000000    0.000000    
-145.259583    103.617371    41.438091    -0.546875    -1.453306    92.172356    0.333100    -6.465992    1.128459    1.273248    1.243985    1.095885    5.210045    17.000425    3.213754    -0.109486    -0.664727    3.365083    11.556650    -0.002490    -11.808656    -18.367672    -0.510540    10.948363    1.635220    -4.957625    0.641786    0.026800    -4.966235    2.183875    -12.449721    1.912251    -8.521666    16.787048    -4.965294    1.091231    -0.806232    -4.629781    0.042586    2.126486    -4.658641    -1.575529    -0.247878    -0.844766    -1.108782    -2.585472    12.339254    -7.885973    6.756663    -9.173803    12.232708    0.000000    0.000000    0.000000    3.392711    4.568435    -0.894112    1.788556    0.017783    -0.526912    -4.301517    -2.143613    -9.361095    0.000000    0.000000    0.000000    
-145.241974    103.609673    41.447880    -0.548098    -1.487575    92.151207    0.372396    -6.490819    1.132082    1.286388    1.290589    1.096512    5.172430    16.942192    3.187876    -0.073202    -0.598752    3.340486    11.548668    -0.001760    -11.794475    -18.362696    -0.511938    10.956403    1.597487    -4.889241    0.624682    0.106783    -4.895859    2.224716    -12.461963    1.908926    -8.524040    16.777824    -4.934880    1.103903    -0.836828    -4.606602    0.046182    2.195593    -4.635775    -1.544262    -0.220183    -0.860853    -1.035178    -2.554355    12.388839    -7.922268    6.760386    -9.221110    12.226497    0.000000    0.000000    0.000000    3.435732    4.585803    -0.865595    1.777779    -0.000039    -0.533610    -4.379917    -2.084804    -9.419512    0.000000    0.000000    0.000000    
-145.229156    103.609482    41.454052    -0.559797    -1.480716    92.146187    0.339474    -6.506409    1.138336    1.335647    1.310219    1.103756    5.147483    16.875538    3.139286    -0.039267    -0.511866    3.291552    11.551338    0.012050    -11.812012    -18.391270    -0.500118    10.970510    1.645734    -5.040343    0.593783    0.099535    -5.046948    2.182513    -12.457544    1.926517    -8.557450    16.741842    -4.956207    1.114826    -0.867671    -4.663215    0.085182    2.230514    -4.693753    -1.606745    -0.221890    -0.862523    -1.035697    -2.558515    12.384170    -7.925707    6.771701    -9.218895    12.235888    0.000000    0.000000    0.000000    3.432228    4.582132    -0.877384    1.780856    -0.009317    -0.537754    -4.298268    -2.131082    -9.352695    0.000000    0.000000    0.000000    
-145.216888    103.610825    41.455395    -0.568054    -1.473720    92.136002    0.366204    -6.517878    1.126033    1.304659    1.328598    1.090063    5.099800    16.838030    3.114391    0.024253    -0.455575    3.272860    11.544030    0.034082    -11.760026    -18.382315    -0.492239    10.961586    1.593090    -5.011867    0.571541    0.267236    -5.014662    2.202920    -12.473433    1.924003    -8.500684    16.758961    -4.933552    1.077684    -0.889347    -4.694289    0.120435    2.253924    -4.724572    -1.591156    -0.229263    -0.858443    -1.031463    -2.558040    12.380843    -7.901570    6.741732    -9.221957    12.219339    0.000000    0.000000    0.000000    3.422218    4.589024    -0.870442    1.782509    -0.023327    -0.536430    -4.272100    -2.133983    -9.334942    0.000000    0.000000    0.000000    
-145.203308    103.609444    41.457973    -0.579848    -1.465241    92.119415    0.353012    -6.548285    1.125464    1.340906    1.380566    1.089165    5.019768    16.743097    3.081007    0.112008    -0.364105    3.245947    11.520356    0.016502    -11.728411    -18.397930    -0.453560    10.962649    1.586840    -5.063382    0.549033    0.300854    -5.065239    2.188577    -12.499739    1.911098    -8.513830    16.753284    -4.878865    1.089380    -0.895037    -4.741564    0.140999    2.265997    -4.771600    -1.578714    -0.233462    -0.856710    -1.027821    -2.564557    12.372048    -7.907323    6.762210    -9.214607    12.237131    0.000000    0.000000    0.000000    3.410935    4.589678    -0.858932    1.786274    -0.032188    -0.565165    -4.270091    -2.142810    -9.297767    0.000000    0.000000    0.000000    
